<mxfile host="app.diagrams.net" modified="2021-05-12T06:15:58.160Z" agent="5.0 (Windows NT 10.0; Win64; x64) AppleWebKit/537.36 (KHTML, like Gecko) Chrome/90.0.4430.93 Safari/537.36" etag="B2UfOLCHK-I36UsXK8t5" version="14.6.12" type="github">
  <diagram id="CZwCJWjIGZkeecl9-mj0" name="Page-1">
    <mxGraphModel dx="1038" dy="548" grid="1" gridSize="10" guides="1" tooltips="1" connect="1" arrows="1" fold="1" page="1" pageScale="1" pageWidth="827" pageHeight="1169" math="0" shadow="0">
      <root>
        <mxCell id="0" />
        <mxCell id="1" parent="0" />
        <mxCell id="2TvHNsEaV7L20eKVPBK6-1" value="users" style="shape=table;startSize=30;container=1;collapsible=1;childLayout=tableLayout;fixedRows=1;rowLines=0;fontStyle=1;align=center;resizeLast=1;" vertex="1" parent="1">
          <mxGeometry x="40" y="40" width="180" height="271.43" as="geometry" />
        </mxCell>
        <mxCell id="2TvHNsEaV7L20eKVPBK6-2" value="" style="shape=partialRectangle;collapsible=0;dropTarget=0;pointerEvents=0;fillColor=none;top=0;left=0;bottom=1;right=0;points=[[0,0.5],[1,0.5]];portConstraint=eastwest;" vertex="1" parent="2TvHNsEaV7L20eKVPBK6-1">
          <mxGeometry y="30" width="180" height="30" as="geometry" />
        </mxCell>
        <mxCell id="2TvHNsEaV7L20eKVPBK6-3" value="PK" style="shape=partialRectangle;connectable=0;fillColor=none;top=0;left=0;bottom=0;right=0;fontStyle=1;overflow=hidden;" vertex="1" parent="2TvHNsEaV7L20eKVPBK6-2">
          <mxGeometry width="30" height="30" as="geometry" />
        </mxCell>
        <mxCell id="2TvHNsEaV7L20eKVPBK6-4" value="user_id" style="shape=partialRectangle;connectable=0;fillColor=none;top=0;left=0;bottom=0;right=0;align=left;spacingLeft=6;fontStyle=5;overflow=hidden;" vertex="1" parent="2TvHNsEaV7L20eKVPBK6-2">
          <mxGeometry x="30" width="150" height="30" as="geometry" />
        </mxCell>
        <mxCell id="2TvHNsEaV7L20eKVPBK6-5" value="" style="shape=partialRectangle;collapsible=0;dropTarget=0;pointerEvents=0;fillColor=none;top=0;left=0;bottom=0;right=0;points=[[0,0.5],[1,0.5]];portConstraint=eastwest;" vertex="1" parent="2TvHNsEaV7L20eKVPBK6-1">
          <mxGeometry y="60" width="180" height="30" as="geometry" />
        </mxCell>
        <mxCell id="2TvHNsEaV7L20eKVPBK6-6" value="UK" style="shape=partialRectangle;connectable=0;fillColor=none;top=0;left=0;bottom=0;right=0;editable=1;overflow=hidden;" vertex="1" parent="2TvHNsEaV7L20eKVPBK6-5">
          <mxGeometry width="30" height="30" as="geometry" />
        </mxCell>
        <mxCell id="2TvHNsEaV7L20eKVPBK6-7" value="email" style="shape=partialRectangle;connectable=0;fillColor=none;top=0;left=0;bottom=0;right=0;align=left;spacingLeft=6;overflow=hidden;" vertex="1" parent="2TvHNsEaV7L20eKVPBK6-5">
          <mxGeometry x="30" width="150" height="30" as="geometry" />
        </mxCell>
        <mxCell id="2TvHNsEaV7L20eKVPBK6-8" value="" style="shape=partialRectangle;collapsible=0;dropTarget=0;pointerEvents=0;fillColor=none;top=0;left=0;bottom=0;right=0;points=[[0,0.5],[1,0.5]];portConstraint=eastwest;" vertex="1" parent="2TvHNsEaV7L20eKVPBK6-1">
          <mxGeometry y="90" width="180" height="30" as="geometry" />
        </mxCell>
        <mxCell id="2TvHNsEaV7L20eKVPBK6-9" value="" style="shape=partialRectangle;connectable=0;fillColor=none;top=0;left=0;bottom=0;right=0;editable=1;overflow=hidden;" vertex="1" parent="2TvHNsEaV7L20eKVPBK6-8">
          <mxGeometry width="30" height="30" as="geometry" />
        </mxCell>
        <mxCell id="2TvHNsEaV7L20eKVPBK6-10" value="hashed_pwd" style="shape=partialRectangle;connectable=0;fillColor=none;top=0;left=0;bottom=0;right=0;align=left;spacingLeft=6;overflow=hidden;" vertex="1" parent="2TvHNsEaV7L20eKVPBK6-8">
          <mxGeometry x="30" width="150" height="30" as="geometry" />
        </mxCell>
        <mxCell id="2TvHNsEaV7L20eKVPBK6-11" value="" style="shape=partialRectangle;collapsible=0;dropTarget=0;pointerEvents=0;fillColor=none;top=0;left=0;bottom=0;right=0;points=[[0,0.5],[1,0.5]];portConstraint=eastwest;" vertex="1" parent="2TvHNsEaV7L20eKVPBK6-1">
          <mxGeometry y="120" width="180" height="30" as="geometry" />
        </mxCell>
        <mxCell id="2TvHNsEaV7L20eKVPBK6-12" value="" style="shape=partialRectangle;connectable=0;fillColor=none;top=0;left=0;bottom=0;right=0;editable=1;overflow=hidden;" vertex="1" parent="2TvHNsEaV7L20eKVPBK6-11">
          <mxGeometry width="30" height="30" as="geometry" />
        </mxCell>
        <mxCell id="2TvHNsEaV7L20eKVPBK6-13" value="company_name" style="shape=partialRectangle;connectable=0;fillColor=none;top=0;left=0;bottom=0;right=0;align=left;spacingLeft=6;overflow=hidden;" vertex="1" parent="2TvHNsEaV7L20eKVPBK6-11">
          <mxGeometry x="30" width="150" height="30" as="geometry" />
        </mxCell>
        <mxCell id="2TvHNsEaV7L20eKVPBK6-14" value="" style="shape=partialRectangle;collapsible=0;dropTarget=0;pointerEvents=0;fillColor=none;top=0;left=0;bottom=0;right=0;points=[[0,0.5],[1,0.5]];portConstraint=eastwest;" vertex="1" parent="2TvHNsEaV7L20eKVPBK6-1">
          <mxGeometry y="150" width="180" height="30" as="geometry" />
        </mxCell>
        <mxCell id="2TvHNsEaV7L20eKVPBK6-15" value="" style="shape=partialRectangle;connectable=0;fillColor=none;top=0;left=0;bottom=0;right=0;editable=1;overflow=hidden;" vertex="1" parent="2TvHNsEaV7L20eKVPBK6-14">
          <mxGeometry width="30" height="30" as="geometry" />
        </mxCell>
        <mxCell id="2TvHNsEaV7L20eKVPBK6-16" value="user_name" style="shape=partialRectangle;connectable=0;fillColor=none;top=0;left=0;bottom=0;right=0;align=left;spacingLeft=6;overflow=hidden;" vertex="1" parent="2TvHNsEaV7L20eKVPBK6-14">
          <mxGeometry x="30" width="150" height="30" as="geometry" />
        </mxCell>
        <mxCell id="2TvHNsEaV7L20eKVPBK6-17" value="" style="shape=partialRectangle;collapsible=0;dropTarget=0;pointerEvents=0;fillColor=none;top=0;left=0;bottom=0;right=0;points=[[0,0.5],[1,0.5]];portConstraint=eastwest;" vertex="1" parent="2TvHNsEaV7L20eKVPBK6-1">
          <mxGeometry y="180" width="180" height="30" as="geometry" />
        </mxCell>
        <mxCell id="2TvHNsEaV7L20eKVPBK6-18" value="" style="shape=partialRectangle;connectable=0;fillColor=none;top=0;left=0;bottom=0;right=0;editable=1;overflow=hidden;" vertex="1" parent="2TvHNsEaV7L20eKVPBK6-17">
          <mxGeometry width="30" height="30" as="geometry" />
        </mxCell>
        <mxCell id="2TvHNsEaV7L20eKVPBK6-19" value="phone_number" style="shape=partialRectangle;connectable=0;fillColor=none;top=0;left=0;bottom=0;right=0;align=left;spacingLeft=6;overflow=hidden;" vertex="1" parent="2TvHNsEaV7L20eKVPBK6-17">
          <mxGeometry x="30" width="150" height="30" as="geometry" />
        </mxCell>
        <mxCell id="2TvHNsEaV7L20eKVPBK6-20" value="" style="shape=partialRectangle;collapsible=0;dropTarget=0;pointerEvents=0;fillColor=none;top=0;left=0;bottom=0;right=0;points=[[0,0.5],[1,0.5]];portConstraint=eastwest;" vertex="1" parent="2TvHNsEaV7L20eKVPBK6-1">
          <mxGeometry y="210" width="180" height="30" as="geometry" />
        </mxCell>
        <mxCell id="2TvHNsEaV7L20eKVPBK6-21" value="" style="shape=partialRectangle;connectable=0;fillColor=none;top=0;left=0;bottom=0;right=0;editable=1;overflow=hidden;" vertex="1" parent="2TvHNsEaV7L20eKVPBK6-20">
          <mxGeometry width="30" height="30" as="geometry" />
        </mxCell>
        <mxCell id="2TvHNsEaV7L20eKVPBK6-22" value="company_reg_num" style="shape=partialRectangle;connectable=0;fillColor=none;top=0;left=0;bottom=0;right=0;align=left;spacingLeft=6;overflow=hidden;" vertex="1" parent="2TvHNsEaV7L20eKVPBK6-20">
          <mxGeometry x="30" width="150" height="30" as="geometry" />
        </mxCell>
        <mxCell id="2TvHNsEaV7L20eKVPBK6-23" value="" style="shape=partialRectangle;collapsible=0;dropTarget=0;pointerEvents=0;fillColor=none;top=0;left=0;bottom=0;right=0;points=[[0,0.5],[1,0.5]];portConstraint=eastwest;" vertex="1" parent="2TvHNsEaV7L20eKVPBK6-1">
          <mxGeometry y="240" width="180" height="30" as="geometry" />
        </mxCell>
        <mxCell id="2TvHNsEaV7L20eKVPBK6-24" value="" style="shape=partialRectangle;connectable=0;fillColor=none;top=0;left=0;bottom=0;right=0;editable=1;overflow=hidden;" vertex="1" parent="2TvHNsEaV7L20eKVPBK6-23">
          <mxGeometry width="30" height="30" as="geometry" />
        </mxCell>
        <mxCell id="2TvHNsEaV7L20eKVPBK6-25" value="created_at" style="shape=partialRectangle;connectable=0;fillColor=none;top=0;left=0;bottom=0;right=0;align=left;spacingLeft=6;overflow=hidden;" vertex="1" parent="2TvHNsEaV7L20eKVPBK6-23">
          <mxGeometry x="30" width="150" height="30" as="geometry" />
        </mxCell>
        <mxCell id="2TvHNsEaV7L20eKVPBK6-26" value="advert" style="shape=table;startSize=30;container=1;collapsible=1;childLayout=tableLayout;fixedRows=1;rowLines=0;fontStyle=1;align=center;resizeLast=1;" vertex="1" parent="1">
          <mxGeometry x="310" y="40" width="180" height="241.43" as="geometry" />
        </mxCell>
        <mxCell id="2TvHNsEaV7L20eKVPBK6-27" value="" style="shape=partialRectangle;collapsible=0;dropTarget=0;pointerEvents=0;fillColor=none;top=0;left=0;bottom=1;right=0;points=[[0,0.5],[1,0.5]];portConstraint=eastwest;" vertex="1" parent="2TvHNsEaV7L20eKVPBK6-26">
          <mxGeometry y="30" width="180" height="30" as="geometry" />
        </mxCell>
        <mxCell id="2TvHNsEaV7L20eKVPBK6-28" value="PK" style="shape=partialRectangle;connectable=0;fillColor=none;top=0;left=0;bottom=0;right=0;fontStyle=1;overflow=hidden;" vertex="1" parent="2TvHNsEaV7L20eKVPBK6-27">
          <mxGeometry width="30" height="30" as="geometry" />
        </mxCell>
        <mxCell id="2TvHNsEaV7L20eKVPBK6-29" value="ad_id" style="shape=partialRectangle;connectable=0;fillColor=none;top=0;left=0;bottom=0;right=0;align=left;spacingLeft=6;fontStyle=5;overflow=hidden;" vertex="1" parent="2TvHNsEaV7L20eKVPBK6-27">
          <mxGeometry x="30" width="150" height="30" as="geometry" />
        </mxCell>
        <mxCell id="2TvHNsEaV7L20eKVPBK6-30" value="" style="shape=partialRectangle;collapsible=0;dropTarget=0;pointerEvents=0;fillColor=none;top=0;left=0;bottom=0;right=0;points=[[0,0.5],[1,0.5]];portConstraint=eastwest;" vertex="1" parent="2TvHNsEaV7L20eKVPBK6-26">
          <mxGeometry y="60" width="180" height="30" as="geometry" />
        </mxCell>
        <mxCell id="2TvHNsEaV7L20eKVPBK6-31" value="FK" style="shape=partialRectangle;connectable=0;fillColor=none;top=0;left=0;bottom=0;right=0;editable=1;overflow=hidden;" vertex="1" parent="2TvHNsEaV7L20eKVPBK6-30">
          <mxGeometry width="30" height="30" as="geometry" />
        </mxCell>
        <mxCell id="2TvHNsEaV7L20eKVPBK6-32" value="user_id" style="shape=partialRectangle;connectable=0;fillColor=none;top=0;left=0;bottom=0;right=0;align=left;spacingLeft=6;overflow=hidden;" vertex="1" parent="2TvHNsEaV7L20eKVPBK6-30">
          <mxGeometry x="30" width="150" height="30" as="geometry" />
        </mxCell>
        <mxCell id="2TvHNsEaV7L20eKVPBK6-33" value="" style="shape=partialRectangle;collapsible=0;dropTarget=0;pointerEvents=0;fillColor=none;top=0;left=0;bottom=0;right=0;points=[[0,0.5],[1,0.5]];portConstraint=eastwest;" vertex="1" parent="2TvHNsEaV7L20eKVPBK6-26">
          <mxGeometry y="90" width="180" height="30" as="geometry" />
        </mxCell>
        <mxCell id="2TvHNsEaV7L20eKVPBK6-34" value="" style="shape=partialRectangle;connectable=0;fillColor=none;top=0;left=0;bottom=0;right=0;editable=1;overflow=hidden;" vertex="1" parent="2TvHNsEaV7L20eKVPBK6-33">
          <mxGeometry width="30" height="30" as="geometry" />
        </mxCell>
        <mxCell id="2TvHNsEaV7L20eKVPBK6-35" value="ad_name" style="shape=partialRectangle;connectable=0;fillColor=none;top=0;left=0;bottom=0;right=0;align=left;spacingLeft=6;overflow=hidden;" vertex="1" parent="2TvHNsEaV7L20eKVPBK6-33">
          <mxGeometry x="30" width="150" height="30" as="geometry" />
        </mxCell>
        <mxCell id="2TvHNsEaV7L20eKVPBK6-36" value="" style="shape=partialRectangle;collapsible=0;dropTarget=0;pointerEvents=0;fillColor=none;top=0;left=0;bottom=0;right=0;points=[[0,0.5],[1,0.5]];portConstraint=eastwest;" vertex="1" parent="2TvHNsEaV7L20eKVPBK6-26">
          <mxGeometry y="120" width="180" height="30" as="geometry" />
        </mxCell>
        <mxCell id="2TvHNsEaV7L20eKVPBK6-37" value="" style="shape=partialRectangle;connectable=0;fillColor=none;top=0;left=0;bottom=0;right=0;editable=1;overflow=hidden;" vertex="1" parent="2TvHNsEaV7L20eKVPBK6-36">
          <mxGeometry width="30" height="30" as="geometry" />
        </mxCell>
        <mxCell id="2TvHNsEaV7L20eKVPBK6-38" value="target_age" style="shape=partialRectangle;connectable=0;fillColor=none;top=0;left=0;bottom=0;right=0;align=left;spacingLeft=6;overflow=hidden;" vertex="1" parent="2TvHNsEaV7L20eKVPBK6-36">
          <mxGeometry x="30" width="150" height="30" as="geometry" />
        </mxCell>
        <mxCell id="2TvHNsEaV7L20eKVPBK6-39" value="" style="shape=partialRectangle;collapsible=0;dropTarget=0;pointerEvents=0;fillColor=none;top=0;left=0;bottom=0;right=0;points=[[0,0.5],[1,0.5]];portConstraint=eastwest;" vertex="1" parent="2TvHNsEaV7L20eKVPBK6-26">
          <mxGeometry y="150" width="180" height="30" as="geometry" />
        </mxCell>
        <mxCell id="2TvHNsEaV7L20eKVPBK6-40" value="" style="shape=partialRectangle;connectable=0;fillColor=none;top=0;left=0;bottom=0;right=0;editable=1;overflow=hidden;" vertex="1" parent="2TvHNsEaV7L20eKVPBK6-39">
          <mxGeometry width="30" height="30" as="geometry" />
        </mxCell>
        <mxCell id="2TvHNsEaV7L20eKVPBK6-41" value="target_gender" style="shape=partialRectangle;connectable=0;fillColor=none;top=0;left=0;bottom=0;right=0;align=left;spacingLeft=6;overflow=hidden;" vertex="1" parent="2TvHNsEaV7L20eKVPBK6-39">
          <mxGeometry x="30" width="150" height="30" as="geometry" />
        </mxCell>
        <mxCell id="2TvHNsEaV7L20eKVPBK6-42" value="" style="shape=partialRectangle;collapsible=0;dropTarget=0;pointerEvents=0;fillColor=none;top=0;left=0;bottom=0;right=0;points=[[0,0.5],[1,0.5]];portConstraint=eastwest;" vertex="1" parent="2TvHNsEaV7L20eKVPBK6-26">
          <mxGeometry y="180" width="180" height="30" as="geometry" />
        </mxCell>
        <mxCell id="2TvHNsEaV7L20eKVPBK6-43" value="" style="shape=partialRectangle;connectable=0;fillColor=none;top=0;left=0;bottom=0;right=0;editable=1;overflow=hidden;" vertex="1" parent="2TvHNsEaV7L20eKVPBK6-42">
          <mxGeometry width="30" height="30" as="geometry" />
        </mxCell>
        <mxCell id="2TvHNsEaV7L20eKVPBK6-44" value="period" style="shape=partialRectangle;connectable=0;fillColor=none;top=0;left=0;bottom=0;right=0;align=left;spacingLeft=6;overflow=hidden;" vertex="1" parent="2TvHNsEaV7L20eKVPBK6-42">
          <mxGeometry x="30" width="150" height="30" as="geometry" />
        </mxCell>
        <mxCell id="2TvHNsEaV7L20eKVPBK6-45" value="" style="shape=partialRectangle;collapsible=0;dropTarget=0;pointerEvents=0;fillColor=none;top=0;left=0;bottom=0;right=0;points=[[0,0.5],[1,0.5]];portConstraint=eastwest;" vertex="1" parent="2TvHNsEaV7L20eKVPBK6-26">
          <mxGeometry y="210" width="180" height="30" as="geometry" />
        </mxCell>
        <mxCell id="2TvHNsEaV7L20eKVPBK6-46" value="" style="shape=partialRectangle;connectable=0;fillColor=none;top=0;left=0;bottom=0;right=0;editable=1;overflow=hidden;" vertex="1" parent="2TvHNsEaV7L20eKVPBK6-45">
          <mxGeometry width="30" height="30" as="geometry" />
        </mxCell>
        <mxCell id="2TvHNsEaV7L20eKVPBK6-47" value="created_at" style="shape=partialRectangle;connectable=0;fillColor=none;top=0;left=0;bottom=0;right=0;align=left;spacingLeft=6;overflow=hidden;" vertex="1" parent="2TvHNsEaV7L20eKVPBK6-45">
          <mxGeometry x="30" width="150" height="30" as="geometry" />
        </mxCell>
        <mxCell id="2TvHNsEaV7L20eKVPBK6-48" value="target" style="shape=table;startSize=30;container=1;collapsible=1;childLayout=tableLayout;fixedRows=1;rowLines=0;fontStyle=1;align=center;resizeLast=1;" vertex="1" parent="1">
          <mxGeometry x="590" y="40" width="180" height="220" as="geometry" />
        </mxCell>
        <mxCell id="2TvHNsEaV7L20eKVPBK6-49" value="" style="shape=partialRectangle;collapsible=0;dropTarget=0;pointerEvents=0;fillColor=none;top=0;left=0;bottom=1;right=0;points=[[0,0.5],[1,0.5]];portConstraint=eastwest;" vertex="1" parent="2TvHNsEaV7L20eKVPBK6-48">
          <mxGeometry y="30" width="180" height="30" as="geometry" />
        </mxCell>
        <mxCell id="2TvHNsEaV7L20eKVPBK6-50" value="PK" style="shape=partialRectangle;connectable=0;fillColor=none;top=0;left=0;bottom=0;right=0;fontStyle=1;overflow=hidden;" vertex="1" parent="2TvHNsEaV7L20eKVPBK6-49">
          <mxGeometry width="30" height="30" as="geometry" />
        </mxCell>
        <mxCell id="2TvHNsEaV7L20eKVPBK6-51" value="target_id" style="shape=partialRectangle;connectable=0;fillColor=none;top=0;left=0;bottom=0;right=0;align=left;spacingLeft=6;fontStyle=5;overflow=hidden;" vertex="1" parent="2TvHNsEaV7L20eKVPBK6-49">
          <mxGeometry x="30" width="150" height="30" as="geometry" />
        </mxCell>
        <mxCell id="2TvHNsEaV7L20eKVPBK6-52" value="" style="shape=partialRectangle;collapsible=0;dropTarget=0;pointerEvents=0;fillColor=none;top=0;left=0;bottom=0;right=0;points=[[0,0.5],[1,0.5]];portConstraint=eastwest;" vertex="1" parent="2TvHNsEaV7L20eKVPBK6-48">
          <mxGeometry y="60" width="180" height="30" as="geometry" />
        </mxCell>
        <mxCell id="2TvHNsEaV7L20eKVPBK6-53" value="FK" style="shape=partialRectangle;connectable=0;fillColor=none;top=0;left=0;bottom=0;right=0;editable=1;overflow=hidden;" vertex="1" parent="2TvHNsEaV7L20eKVPBK6-52">
          <mxGeometry width="30" height="30" as="geometry" />
        </mxCell>
        <mxCell id="2TvHNsEaV7L20eKVPBK6-54" value="face_id" style="shape=partialRectangle;connectable=0;fillColor=none;top=0;left=0;bottom=0;right=0;align=left;spacingLeft=6;overflow=hidden;" vertex="1" parent="2TvHNsEaV7L20eKVPBK6-52">
          <mxGeometry x="30" width="150" height="30" as="geometry" />
        </mxCell>
        <mxCell id="2TvHNsEaV7L20eKVPBK6-55" value="" style="shape=partialRectangle;collapsible=0;dropTarget=0;pointerEvents=0;fillColor=none;top=0;left=0;bottom=0;right=0;points=[[0,0.5],[1,0.5]];portConstraint=eastwest;" vertex="1" parent="2TvHNsEaV7L20eKVPBK6-48">
          <mxGeometry y="90" width="180" height="30" as="geometry" />
        </mxCell>
        <mxCell id="2TvHNsEaV7L20eKVPBK6-56" value="FK" style="shape=partialRectangle;connectable=0;fillColor=none;top=0;left=0;bottom=0;right=0;editable=1;overflow=hidden;" vertex="1" parent="2TvHNsEaV7L20eKVPBK6-55">
          <mxGeometry width="30" height="30" as="geometry" />
        </mxCell>
        <mxCell id="2TvHNsEaV7L20eKVPBK6-57" value="ad_id" style="shape=partialRectangle;connectable=0;fillColor=none;top=0;left=0;bottom=0;right=0;align=left;spacingLeft=6;overflow=hidden;" vertex="1" parent="2TvHNsEaV7L20eKVPBK6-55">
          <mxGeometry x="30" width="150" height="30" as="geometry" />
        </mxCell>
        <mxCell id="2TvHNsEaV7L20eKVPBK6-58" value="" style="shape=partialRectangle;collapsible=0;dropTarget=0;pointerEvents=0;fillColor=none;top=0;left=0;bottom=0;right=0;points=[[0,0.5],[1,0.5]];portConstraint=eastwest;" vertex="1" parent="2TvHNsEaV7L20eKVPBK6-48">
          <mxGeometry y="120" width="180" height="30" as="geometry" />
        </mxCell>
        <mxCell id="2TvHNsEaV7L20eKVPBK6-59" value="" style="shape=partialRectangle;connectable=0;fillColor=none;top=0;left=0;bottom=0;right=0;editable=1;overflow=hidden;" vertex="1" parent="2TvHNsEaV7L20eKVPBK6-58">
          <mxGeometry width="30" height="30" as="geometry" />
        </mxCell>
        <mxCell id="2TvHNsEaV7L20eKVPBK6-60" value="gender" style="shape=partialRectangle;connectable=0;fillColor=none;top=0;left=0;bottom=0;right=0;align=left;spacingLeft=6;overflow=hidden;" vertex="1" parent="2TvHNsEaV7L20eKVPBK6-58">
          <mxGeometry x="30" width="150" height="30" as="geometry" />
        </mxCell>
        <mxCell id="2TvHNsEaV7L20eKVPBK6-61" value="" style="shape=partialRectangle;collapsible=0;dropTarget=0;pointerEvents=0;fillColor=none;top=0;left=0;bottom=0;right=0;points=[[0,0.5],[1,0.5]];portConstraint=eastwest;" vertex="1" parent="2TvHNsEaV7L20eKVPBK6-48">
          <mxGeometry y="150" width="180" height="30" as="geometry" />
        </mxCell>
        <mxCell id="2TvHNsEaV7L20eKVPBK6-62" value="" style="shape=partialRectangle;connectable=0;fillColor=none;top=0;left=0;bottom=0;right=0;editable=1;overflow=hidden;" vertex="1" parent="2TvHNsEaV7L20eKVPBK6-61">
          <mxGeometry width="30" height="30" as="geometry" />
        </mxCell>
        <mxCell id="2TvHNsEaV7L20eKVPBK6-63" value="age" style="shape=partialRectangle;connectable=0;fillColor=none;top=0;left=0;bottom=0;right=0;align=left;spacingLeft=6;overflow=hidden;" vertex="1" parent="2TvHNsEaV7L20eKVPBK6-61">
          <mxGeometry x="30" width="150" height="30" as="geometry" />
        </mxCell>
        <mxCell id="2TvHNsEaV7L20eKVPBK6-64" value="" style="shape=partialRectangle;collapsible=0;dropTarget=0;pointerEvents=0;fillColor=none;top=0;left=0;bottom=0;right=0;points=[[0,0.5],[1,0.5]];portConstraint=eastwest;" vertex="1" parent="2TvHNsEaV7L20eKVPBK6-48">
          <mxGeometry y="180" width="180" height="30" as="geometry" />
        </mxCell>
        <mxCell id="2TvHNsEaV7L20eKVPBK6-65" value="" style="shape=partialRectangle;connectable=0;fillColor=none;top=0;left=0;bottom=0;right=0;editable=1;overflow=hidden;" vertex="1" parent="2TvHNsEaV7L20eKVPBK6-64">
          <mxGeometry width="30" height="30" as="geometry" />
        </mxCell>
        <mxCell id="2TvHNsEaV7L20eKVPBK6-66" value="created_at" style="shape=partialRectangle;connectable=0;fillColor=none;top=0;left=0;bottom=0;right=0;align=left;spacingLeft=6;overflow=hidden;" vertex="1" parent="2TvHNsEaV7L20eKVPBK6-64">
          <mxGeometry x="30" width="150" height="30" as="geometry" />
        </mxCell>
        <mxCell id="2TvHNsEaV7L20eKVPBK6-67" value="face" style="shape=table;startSize=30;container=1;collapsible=1;childLayout=tableLayout;fixedRows=1;rowLines=0;fontStyle=1;align=center;resizeLast=1;" vertex="1" parent="1">
          <mxGeometry x="850" y="70.00157894736844" width="180" height="150" as="geometry" />
        </mxCell>
        <mxCell id="2TvHNsEaV7L20eKVPBK6-68" value="" style="shape=partialRectangle;collapsible=0;dropTarget=0;pointerEvents=0;fillColor=none;top=0;left=0;bottom=1;right=0;points=[[0,0.5],[1,0.5]];portConstraint=eastwest;" vertex="1" parent="2TvHNsEaV7L20eKVPBK6-67">
          <mxGeometry y="30" width="180" height="30" as="geometry" />
        </mxCell>
        <mxCell id="2TvHNsEaV7L20eKVPBK6-69" value="PK" style="shape=partialRectangle;connectable=0;fillColor=none;top=0;left=0;bottom=0;right=0;fontStyle=1;overflow=hidden;" vertex="1" parent="2TvHNsEaV7L20eKVPBK6-68">
          <mxGeometry width="30" height="30" as="geometry" />
        </mxCell>
        <mxCell id="2TvHNsEaV7L20eKVPBK6-70" value="face_id" style="shape=partialRectangle;connectable=0;fillColor=none;top=0;left=0;bottom=0;right=0;align=left;spacingLeft=6;fontStyle=5;overflow=hidden;" vertex="1" parent="2TvHNsEaV7L20eKVPBK6-68">
          <mxGeometry x="30" width="150" height="30" as="geometry" />
        </mxCell>
        <mxCell id="2TvHNsEaV7L20eKVPBK6-71" value="" style="shape=partialRectangle;collapsible=0;dropTarget=0;pointerEvents=0;fillColor=none;top=0;left=0;bottom=0;right=0;points=[[0,0.5],[1,0.5]];portConstraint=eastwest;" vertex="1" parent="2TvHNsEaV7L20eKVPBK6-67">
          <mxGeometry y="60" width="180" height="30" as="geometry" />
        </mxCell>
        <mxCell id="2TvHNsEaV7L20eKVPBK6-72" value="" style="shape=partialRectangle;connectable=0;fillColor=none;top=0;left=0;bottom=0;right=0;editable=1;overflow=hidden;" vertex="1" parent="2TvHNsEaV7L20eKVPBK6-71">
          <mxGeometry width="30" height="30" as="geometry" />
        </mxCell>
        <mxCell id="2TvHNsEaV7L20eKVPBK6-73" value="face_array" style="shape=partialRectangle;connectable=0;fillColor=none;top=0;left=0;bottom=0;right=0;align=left;spacingLeft=6;overflow=hidden;" vertex="1" parent="2TvHNsEaV7L20eKVPBK6-71">
          <mxGeometry x="30" width="150" height="30" as="geometry" />
        </mxCell>
        <mxCell id="2TvHNsEaV7L20eKVPBK6-74" value="" style="shape=partialRectangle;collapsible=0;dropTarget=0;pointerEvents=0;fillColor=none;top=0;left=0;bottom=0;right=0;points=[[0,0.5],[1,0.5]];portConstraint=eastwest;" vertex="1" parent="2TvHNsEaV7L20eKVPBK6-67">
          <mxGeometry y="90" width="180" height="30" as="geometry" />
        </mxCell>
        <mxCell id="2TvHNsEaV7L20eKVPBK6-75" value="" style="shape=partialRectangle;connectable=0;fillColor=none;top=0;left=0;bottom=0;right=0;editable=1;overflow=hidden;" vertex="1" parent="2TvHNsEaV7L20eKVPBK6-74">
          <mxGeometry width="30" height="30" as="geometry" />
        </mxCell>
        <mxCell id="2TvHNsEaV7L20eKVPBK6-76" value="input_image" style="shape=partialRectangle;connectable=0;fillColor=none;top=0;left=0;bottom=0;right=0;align=left;spacingLeft=6;overflow=hidden;" vertex="1" parent="2TvHNsEaV7L20eKVPBK6-74">
          <mxGeometry x="30" width="150" height="30" as="geometry" />
        </mxCell>
        <mxCell id="2TvHNsEaV7L20eKVPBK6-77" value="" style="shape=partialRectangle;collapsible=0;dropTarget=0;pointerEvents=0;fillColor=none;top=0;left=0;bottom=0;right=0;points=[[0,0.5],[1,0.5]];portConstraint=eastwest;" vertex="1" parent="2TvHNsEaV7L20eKVPBK6-67">
          <mxGeometry y="120" width="180" height="30" as="geometry" />
        </mxCell>
        <mxCell id="2TvHNsEaV7L20eKVPBK6-78" value="" style="shape=partialRectangle;connectable=0;fillColor=none;top=0;left=0;bottom=0;right=0;editable=1;overflow=hidden;" vertex="1" parent="2TvHNsEaV7L20eKVPBK6-77">
          <mxGeometry width="30" height="30" as="geometry" />
        </mxCell>
        <mxCell id="2TvHNsEaV7L20eKVPBK6-79" value="created_at" style="shape=partialRectangle;connectable=0;fillColor=none;top=0;left=0;bottom=0;right=0;align=left;spacingLeft=6;overflow=hidden;" vertex="1" parent="2TvHNsEaV7L20eKVPBK6-77">
          <mxGeometry x="30" width="150" height="30" as="geometry" />
        </mxCell>
        <mxCell id="2TvHNsEaV7L20eKVPBK6-80" style="edgeStyle=orthogonalEdgeStyle;rounded=0;orthogonalLoop=1;jettySize=auto;html=1;entryX=1;entryY=0.5;entryDx=0;entryDy=0;" edge="1" parent="1" source="2TvHNsEaV7L20eKVPBK6-68" target="2TvHNsEaV7L20eKVPBK6-52">
          <mxGeometry relative="1" as="geometry" />
        </mxCell>
        <mxCell id="2TvHNsEaV7L20eKVPBK6-81" style="edgeStyle=orthogonalEdgeStyle;rounded=0;orthogonalLoop=1;jettySize=auto;html=1;entryX=0;entryY=0.5;entryDx=0;entryDy=0;" edge="1" parent="1" source="2TvHNsEaV7L20eKVPBK6-27" target="2TvHNsEaV7L20eKVPBK6-55">
          <mxGeometry relative="1" as="geometry" />
        </mxCell>
        <mxCell id="2TvHNsEaV7L20eKVPBK6-82" style="edgeStyle=orthogonalEdgeStyle;rounded=0;orthogonalLoop=1;jettySize=auto;html=1;entryX=0;entryY=0.5;entryDx=0;entryDy=0;" edge="1" parent="1" source="2TvHNsEaV7L20eKVPBK6-2" target="2TvHNsEaV7L20eKVPBK6-30">
          <mxGeometry relative="1" as="geometry" />
        </mxCell>
        <mxCell id="2TvHNsEaV7L20eKVPBK6-83" value="campaign" style="shape=table;startSize=30;container=1;collapsible=1;childLayout=tableLayout;fixedRows=1;rowLines=0;fontStyle=1;align=center;resizeLast=1;" vertex="1" parent="1">
          <mxGeometry x="310" y="320" width="180" height="210" as="geometry" />
        </mxCell>
        <mxCell id="2TvHNsEaV7L20eKVPBK6-84" value="" style="shape=partialRectangle;collapsible=0;dropTarget=0;pointerEvents=0;fillColor=none;top=0;left=0;bottom=1;right=0;points=[[0,0.5],[1,0.5]];portConstraint=eastwest;" vertex="1" parent="2TvHNsEaV7L20eKVPBK6-83">
          <mxGeometry y="30" width="180" height="30" as="geometry" />
        </mxCell>
        <mxCell id="2TvHNsEaV7L20eKVPBK6-85" value="PK" style="shape=partialRectangle;connectable=0;fillColor=none;top=0;left=0;bottom=0;right=0;fontStyle=1;overflow=hidden;" vertex="1" parent="2TvHNsEaV7L20eKVPBK6-84">
          <mxGeometry width="30" height="30" as="geometry" />
        </mxCell>
        <mxCell id="2TvHNsEaV7L20eKVPBK6-86" value="camp_id" style="shape=partialRectangle;connectable=0;fillColor=none;top=0;left=0;bottom=0;right=0;align=left;spacingLeft=6;fontStyle=5;overflow=hidden;" vertex="1" parent="2TvHNsEaV7L20eKVPBK6-84">
          <mxGeometry x="30" width="150" height="30" as="geometry" />
        </mxCell>
        <mxCell id="2TvHNsEaV7L20eKVPBK6-87" value="" style="shape=partialRectangle;collapsible=0;dropTarget=0;pointerEvents=0;fillColor=none;top=0;left=0;bottom=0;right=0;points=[[0,0.5],[1,0.5]];portConstraint=eastwest;" vertex="1" parent="2TvHNsEaV7L20eKVPBK6-83">
          <mxGeometry y="60" width="180" height="30" as="geometry" />
        </mxCell>
        <mxCell id="2TvHNsEaV7L20eKVPBK6-88" value="FK" style="shape=partialRectangle;connectable=0;fillColor=none;top=0;left=0;bottom=0;right=0;editable=1;overflow=hidden;" vertex="1" parent="2TvHNsEaV7L20eKVPBK6-87">
          <mxGeometry width="30" height="30" as="geometry" />
        </mxCell>
        <mxCell id="2TvHNsEaV7L20eKVPBK6-89" value="ad_id" style="shape=partialRectangle;connectable=0;fillColor=none;top=0;left=0;bottom=0;right=0;align=left;spacingLeft=6;overflow=hidden;" vertex="1" parent="2TvHNsEaV7L20eKVPBK6-87">
          <mxGeometry x="30" width="150" height="30" as="geometry" />
        </mxCell>
        <mxCell id="2TvHNsEaV7L20eKVPBK6-90" value="" style="shape=partialRectangle;collapsible=0;dropTarget=0;pointerEvents=0;fillColor=none;top=0;left=0;bottom=0;right=0;points=[[0,0.5],[1,0.5]];portConstraint=eastwest;" vertex="1" parent="2TvHNsEaV7L20eKVPBK6-83">
          <mxGeometry y="90" width="180" height="30" as="geometry" />
        </mxCell>
        <mxCell id="2TvHNsEaV7L20eKVPBK6-91" value="" style="shape=partialRectangle;connectable=0;fillColor=none;top=0;left=0;bottom=0;right=0;editable=1;overflow=hidden;" vertex="1" parent="2TvHNsEaV7L20eKVPBK6-90">
          <mxGeometry width="30" height="30" as="geometry" />
        </mxCell>
        <mxCell id="2TvHNsEaV7L20eKVPBK6-92" value="impression" style="shape=partialRectangle;connectable=0;fillColor=none;top=0;left=0;bottom=0;right=0;align=left;spacingLeft=6;overflow=hidden;" vertex="1" parent="2TvHNsEaV7L20eKVPBK6-90">
          <mxGeometry x="30" width="150" height="30" as="geometry" />
        </mxCell>
        <mxCell id="2TvHNsEaV7L20eKVPBK6-93" value="" style="shape=partialRectangle;collapsible=0;dropTarget=0;pointerEvents=0;fillColor=none;top=0;left=0;bottom=0;right=0;points=[[0,0.5],[1,0.5]];portConstraint=eastwest;" vertex="1" parent="2TvHNsEaV7L20eKVPBK6-83">
          <mxGeometry y="120" width="180" height="30" as="geometry" />
        </mxCell>
        <mxCell id="2TvHNsEaV7L20eKVPBK6-94" value="" style="shape=partialRectangle;connectable=0;fillColor=none;top=0;left=0;bottom=0;right=0;editable=1;overflow=hidden;" vertex="1" parent="2TvHNsEaV7L20eKVPBK6-93">
          <mxGeometry width="30" height="30" as="geometry" />
        </mxCell>
        <mxCell id="2TvHNsEaV7L20eKVPBK6-95" value="budget" style="shape=partialRectangle;connectable=0;fillColor=none;top=0;left=0;bottom=0;right=0;align=left;spacingLeft=6;overflow=hidden;" vertex="1" parent="2TvHNsEaV7L20eKVPBK6-93">
          <mxGeometry x="30" width="150" height="30" as="geometry" />
        </mxCell>
        <mxCell id="2TvHNsEaV7L20eKVPBK6-96" value="" style="shape=partialRectangle;collapsible=0;dropTarget=0;pointerEvents=0;fillColor=none;top=0;left=0;bottom=0;right=0;points=[[0,0.5],[1,0.5]];portConstraint=eastwest;" vertex="1" parent="2TvHNsEaV7L20eKVPBK6-83">
          <mxGeometry y="150" width="180" height="30" as="geometry" />
        </mxCell>
        <mxCell id="2TvHNsEaV7L20eKVPBK6-97" value="" style="shape=partialRectangle;connectable=0;fillColor=none;top=0;left=0;bottom=0;right=0;editable=1;overflow=hidden;" vertex="1" parent="2TvHNsEaV7L20eKVPBK6-96">
          <mxGeometry width="30" height="30" as="geometry" />
        </mxCell>
        <mxCell id="2TvHNsEaV7L20eKVPBK6-98" value="CPV" style="shape=partialRectangle;connectable=0;fillColor=none;top=0;left=0;bottom=0;right=0;align=left;spacingLeft=6;overflow=hidden;" vertex="1" parent="2TvHNsEaV7L20eKVPBK6-96">
          <mxGeometry x="30" width="150" height="30" as="geometry" />
        </mxCell>
        <mxCell id="2TvHNsEaV7L20eKVPBK6-99" value="" style="shape=partialRectangle;collapsible=0;dropTarget=0;pointerEvents=0;fillColor=none;top=0;left=0;bottom=0;right=0;points=[[0,0.5],[1,0.5]];portConstraint=eastwest;" vertex="1" parent="2TvHNsEaV7L20eKVPBK6-83">
          <mxGeometry y="180" width="180" height="30" as="geometry" />
        </mxCell>
        <mxCell id="2TvHNsEaV7L20eKVPBK6-100" value="" style="shape=partialRectangle;connectable=0;fillColor=none;top=0;left=0;bottom=0;right=0;editable=1;overflow=hidden;" vertex="1" parent="2TvHNsEaV7L20eKVPBK6-99">
          <mxGeometry width="30" height="30" as="geometry" />
        </mxCell>
        <mxCell id="2TvHNsEaV7L20eKVPBK6-101" value="created_at" style="shape=partialRectangle;connectable=0;fillColor=none;top=0;left=0;bottom=0;right=0;align=left;spacingLeft=6;overflow=hidden;" vertex="1" parent="2TvHNsEaV7L20eKVPBK6-99">
          <mxGeometry x="30" width="150" height="30" as="geometry" />
        </mxCell>
        <mxCell id="2TvHNsEaV7L20eKVPBK6-102" style="edgeStyle=orthogonalEdgeStyle;rounded=0;orthogonalLoop=1;jettySize=auto;html=1;entryX=0;entryY=0.5;entryDx=0;entryDy=0;" edge="1" parent="1" source="2TvHNsEaV7L20eKVPBK6-27" target="2TvHNsEaV7L20eKVPBK6-87">
          <mxGeometry relative="1" as="geometry">
            <Array as="points">
              <mxPoint x="280" y="85" />
              <mxPoint x="280" y="395" />
            </Array>
          </mxGeometry>
        </mxCell>
      </root>
    </mxGraphModel>
  </diagram>
</mxfile>
